<?xml version="1.0" encoding="utf-8"?>
<!-- Generator: Adobe Illustrator 23.0.6, SVG Export Plug-In . SVG Version: 6.00 Build 0)  -->
<svg version="1.0" id="Layer_1" xmlns="http://www.w3.org/2000/svg" xmlns:xlink="http://www.w3.org/1999/xlink" x="0px" y="0px"
	 viewBox="0 0 340.13 64.41" enable-background="new 0 0 340.13 64.41" xml:space="preserve">
<g>
	<defs>
		<rect id="SVGID_1_" width="340.13" height="64.41"/>
	</defs>
	<clipPath id="SVGID_2_">
		<use xlink:href="#SVGID_1_"  overflow="visible"/>
	</clipPath>
	<path clip-path="url(#SVGID_2_)" fill="#110D1B" d="M91.74,34.87c1.19,0,2.11-0.24,2.75-0.71c0.64-0.47,0.95-1.16,0.95-2.07
		c0-1.78-1.23-2.66-3.7-2.66h-4.68v5.43H91.74z M82.41,18.12h16.32v3.72H87.06v4.16h5.61c2.44,0,4.31,0.51,5.59,1.53
		c1.28,1.02,1.92,2.5,1.92,4.43c0,2.02-0.72,3.59-2.14,4.7c-1.43,1.12-3.44,1.68-6.04,1.68h-9.59V18.12z"/>
</g>
<polygon fill="#110D1B" points="105.17,18.12 109.82,18.12 109.82,31.29 119.47,18.12 123.86,18.12 123.86,38.34 119.24,38.34 
	119.24,25.2 109.59,38.34 105.17,38.34 "/>
<g>
	<defs>
		<rect id="SVGID_3_" width="340.13" height="64.41"/>
	</defs>
	<clipPath id="SVGID_4_">
		<use xlink:href="#SVGID_3_"  overflow="visible"/>
	</clipPath>
	<path clip-path="url(#SVGID_4_)" fill="#110D1B" d="M146.37,18.12v20.22h-4.62v-7.27c-1.75,0.63-3.38,0.95-4.88,0.95
		c-2.71,0-4.79-0.65-6.24-1.95c-1.44-1.3-2.17-3.17-2.17-5.61v-6.33h4.62v5.8c0,1.39,0.37,2.43,1.11,3.13
		c0.74,0.7,1.82,1.06,3.22,1.06c1.54,0,2.99-0.3,4.33-0.89v-9.1H146.37z"/>
</g>
<polygon fill="#110D1B" points="152.84,18.12 157.49,18.12 157.49,31.29 167.14,18.12 171.53,18.12 171.53,38.34 166.9,38.34 
	166.9,25.2 157.26,38.34 152.84,38.34 "/>
<g>
	<defs>
		<rect id="SVGID_5_" width="340.13" height="64.41"/>
	</defs>
	<clipPath id="SVGID_6_">
		<use xlink:href="#SVGID_5_"  overflow="visible"/>
	</clipPath>
	<path clip-path="url(#SVGID_6_)" fill="#110D1B" d="M195.88,18.12v20.22h-4.62v-16.4h-6.93l-0.15,4.22
		c-0.09,2.87-0.33,5.2-0.69,6.97c-0.37,1.78-0.98,3.15-1.84,4.1c-0.86,0.95-2.06,1.44-3.6,1.44c-0.63,0-1.41-0.11-2.31-0.32
		l0.29-3.96c0.25,0.08,0.53,0.12,0.84,0.12c1.12,0,1.9-0.66,2.34-1.98c0.44-1.32,0.72-3.38,0.84-6.2l0.29-8.21H195.88z"/>
</g>
<polygon fill="#110D1B" points="226.24,21.93 216.62,21.93 216.65,38.34 212,38.34 212,18.12 226.27,18.12 "/>
<g>
	<defs>
		<rect id="SVGID_7_" width="340.13" height="64.41"/>
	</defs>
	<clipPath id="SVGID_8_">
		<use xlink:href="#SVGID_7_"  overflow="visible"/>
	</clipPath>
	<path clip-path="url(#SVGID_8_)" fill="#110D1B" d="M246.09,18.12v20.22h-4.62v-16.4h-6.93l-0.15,4.22
		c-0.09,2.87-0.32,5.2-0.69,6.97c-0.37,1.78-0.98,3.15-1.84,4.1c-0.86,0.95-2.06,1.44-3.6,1.44c-0.63,0-1.41-0.11-2.31-0.32
		l0.29-3.96c0.25,0.08,0.53,0.12,0.84,0.12c1.12,0,1.9-0.66,2.34-1.98c0.44-1.32,0.72-3.38,0.84-6.2l0.29-8.21H246.09z"/>
	<path clip-path="url(#SVGID_8_)" fill="#110D1B" d="M265.47,33.88c0.96-0.55,1.72-1.32,2.27-2.3c0.55-0.98,0.82-2.1,0.82-3.35
		c0-1.25-0.27-2.37-0.82-3.35c-0.55-0.98-1.31-1.75-2.27-2.29c-0.96-0.55-2.04-0.83-3.24-0.83s-2.27,0.28-3.23,0.83
		c-0.97,0.55-1.72,1.31-2.27,2.29c-0.55,0.98-0.82,2.1-0.82,3.35c0,1.26,0.28,2.37,0.82,3.35c0.55,0.98,1.3,1.75,2.27,2.3
		c0.96,0.54,2.04,0.82,3.23,0.82S264.51,34.42,265.47,33.88 M256.56,37.33c-1.69-0.9-3.01-2.15-3.96-3.74
		c-0.95-1.59-1.43-3.37-1.43-5.36c0-1.98,0.48-3.76,1.43-5.36c0.95-1.59,2.27-2.83,3.96-3.74c1.69-0.9,3.58-1.36,5.67-1.36
		c2.1,0,3.99,0.46,5.67,1.36c1.67,0.91,2.99,2.16,3.96,3.74c0.96,1.59,1.44,3.38,1.44,5.36c0,1.99-0.48,3.77-1.44,5.36
		c-0.97,1.59-2.29,2.83-3.96,3.74c-1.68,0.91-3.56,1.36-5.67,1.36C260.14,38.69,258.24,38.24,256.56,37.33"/>
	<path clip-path="url(#SVGID_8_)" fill="#110D1B" d="M287.68,34.87c1.19,0,2.11-0.24,2.74-0.71c0.64-0.47,0.95-1.16,0.95-2.07
		c0-1.78-1.23-2.66-3.7-2.66H283v5.43H287.68z M278.35,18.12h16.32v3.72H283v4.16h5.61c2.45,0,4.3,0.51,5.59,1.53
		c1.28,1.02,1.92,2.5,1.92,4.43c0,2.02-0.71,3.59-2.14,4.7c-1.43,1.12-3.44,1.68-6.04,1.68h-9.59V18.12z"/>
	<path clip-path="url(#SVGID_8_)" fill="#110D1B" d="M318.62,18.12l-8.61,16c-0.83,1.54-1.82,2.71-2.99,3.49
		c-1.16,0.79-2.43,1.19-3.8,1.19c-1.06,0-2.15-0.23-3.29-0.69l1.13-3.55c0.8,0.25,1.48,0.38,2.02,0.38c0.58,0,1.1-0.14,1.56-0.42
		c0.46-0.28,0.89-0.72,1.27-1.31l0.17-0.23l-7.97-14.84h4.99l5.37,10.86l5.55-10.86H318.62z"/>
	<path clip-path="url(#SVGID_8_)" fill="#110D1B" d="M326.03,37.35c-1.67-0.9-2.98-2.14-3.93-3.73c-0.95-1.59-1.43-3.38-1.43-5.39
		c0-2,0.48-3.8,1.43-5.39c0.95-1.59,2.26-2.83,3.93-3.72c1.67-0.89,3.54-1.35,5.62-1.35c1.75,0,3.34,0.31,4.75,0.93
		c1.42,0.62,2.61,1.5,3.57,2.66l-3.01,2.77c-1.36-1.58-3.06-2.37-5.08-2.37c-1.25,0-2.37,0.27-3.35,0.82
		c-0.98,0.55-1.75,1.31-2.3,2.3c-0.55,0.98-0.82,2.1-0.82,3.35c0,1.25,0.27,2.37,0.82,3.35c0.55,0.98,1.32,1.75,2.3,2.3
		c0.98,0.54,2.1,0.82,3.35,0.82c2.03,0,3.72-0.8,5.08-2.4l3.01,2.77c-0.96,1.18-2.16,2.07-3.58,2.69c-1.42,0.61-3.01,0.92-4.77,0.92
		C329.56,38.69,327.7,38.24,326.03,37.35"/>
	<path clip-path="url(#SVGID_8_)" fill="#837E84" d="M149.24,53.72c0.53,0,0.94-0.1,1.22-0.3c0.28-0.21,0.42-0.51,0.42-0.91
		c0-0.78-0.55-1.18-1.64-1.18h-1.83v2.39H149.24z M146.49,47.94h4.91v0.79h-3.99v1.86h2.03c0.78,0,1.36,0.16,1.77,0.48
		c0.4,0.32,0.61,0.79,0.61,1.4c0,0.63-0.22,1.13-0.66,1.47c-0.43,0.34-1.06,0.51-1.87,0.51h-2.79V47.94z"/>
</g>
<path fill="#837E84" d="M157.16,52.08l-1.4-3.19l-1.4,3.19H157.16z M157.49,52.82h-3.46l-0.71,1.62h-0.96l2.95-6.51h0.92l2.96,6.51
	h-0.97L157.49,52.82z"/>
<polygon fill="#837E84" points="165.9,47.94 165.9,54.45 164.97,54.45 164.97,51.55 161.24,51.55 161.24,54.45 160.31,54.45 
	160.31,47.94 161.24,47.94 161.24,50.74 164.97,50.74 164.97,47.94 "/>
<polygon fill="#837E84" points="170.19,51.58 168.83,51.58 168.83,54.45 167.93,54.45 167.93,47.95 168.83,47.95 168.83,50.77 
	170.21,50.77 172.25,47.95 173.25,47.95 170.93,51.1 173.36,54.45 172.3,54.45 "/>
<g>
	<defs>
		<rect id="SVGID_9_" width="340.13" height="64.41"/>
	</defs>
	<clipPath id="SVGID_10_">
		<use xlink:href="#SVGID_9_"  overflow="visible"/>
	</clipPath>
	<path clip-path="url(#SVGID_10_)" fill="#837E84" d="M179.78,53.72c0.54,0,0.94-0.1,1.22-0.3c0.28-0.21,0.42-0.51,0.42-0.91
		c0-0.78-0.54-1.18-1.64-1.18h-1.83v2.39H179.78z M177.03,47.94h4.9v0.79h-3.98v1.86h2.03c0.77,0,1.36,0.16,1.77,0.48
		c0.4,0.32,0.6,0.79,0.6,1.4c0,0.63-0.22,1.13-0.66,1.47c-0.43,0.34-1.06,0.51-1.87,0.51h-2.79V47.94z"/>
	<path clip-path="url(#SVGID_10_)" fill="#837E84" d="M188.94,47.94l-2.89,5.36c-0.23,0.43-0.5,0.75-0.81,0.96
		c-0.31,0.21-0.65,0.31-1.01,0.31c-0.29,0-0.58-0.06-0.87-0.2l0.24-0.74c0.23,0.08,0.43,0.13,0.61,0.13c0.41,0,0.75-0.22,1.01-0.65
		l0.15-0.23l-2.62-4.94h0.99l2.11,4.13l2.16-4.13H188.94z"/>
	<path clip-path="url(#SVGID_10_)" fill="#837E84" d="M190.98,54.09c-0.52-0.29-0.94-0.68-1.23-1.19c-0.3-0.51-0.45-1.07-0.45-1.7
		c0-0.63,0.15-1.2,0.45-1.7c0.29-0.51,0.71-0.9,1.23-1.19c0.53-0.29,1.11-0.43,1.77-0.43c0.51,0,0.97,0.09,1.39,0.26
		c0.42,0.17,0.78,0.42,1.08,0.76l-0.6,0.59c-0.49-0.51-1.1-0.77-1.83-0.77c-0.48,0-0.92,0.1-1.31,0.32
		c-0.39,0.22-0.69,0.51-0.92,0.89c-0.22,0.38-0.33,0.81-0.33,1.28c0,0.47,0.11,0.9,0.33,1.28c0.22,0.38,0.53,0.68,0.92,0.89
		c0.39,0.22,0.83,0.33,1.31,0.33c0.72,0,1.34-0.26,1.83-0.78l0.6,0.59c-0.3,0.33-0.66,0.59-1.08,0.76c-0.43,0.17-0.89,0.26-1.4,0.26
		C192.1,54.52,191.51,54.38,190.98,54.09"/>
	<path clip-path="url(#SVGID_10_)" fill="#837E84" d="M200.16,54.09c-0.52-0.29-0.94-0.68-1.23-1.19c-0.3-0.51-0.45-1.07-0.45-1.7
		c0-0.63,0.15-1.2,0.45-1.7c0.29-0.51,0.71-0.9,1.24-1.19c0.53-0.29,1.11-0.43,1.77-0.43c0.51,0,0.97,0.09,1.39,0.26
		c0.42,0.17,0.78,0.42,1.08,0.76l-0.6,0.59c-0.49-0.51-1.1-0.77-1.83-0.77c-0.48,0-0.92,0.1-1.31,0.32
		c-0.39,0.22-0.69,0.51-0.92,0.89c-0.22,0.38-0.33,0.81-0.33,1.28c0,0.47,0.11,0.9,0.33,1.28c0.22,0.38,0.53,0.68,0.92,0.89
		c0.39,0.22,0.83,0.33,1.31,0.33c0.72,0,1.34-0.26,1.83-0.78l0.6,0.59c-0.3,0.33-0.66,0.59-1.08,0.76c-0.43,0.17-0.89,0.26-1.4,0.26
		C201.27,54.52,200.68,54.38,200.16,54.09"/>
</g>
<path fill="#837E84" d="M209.43,52.08l-1.4-3.19l-1.4,3.19H209.43z M209.75,52.82h-3.46l-0.71,1.62h-0.96l2.95-6.51h0.92l2.96,6.51
	h-0.98L209.75,52.82z"/>
<polygon fill="#837E84" points="218.16,47.94 218.16,54.45 217.23,54.45 217.23,51.55 213.5,51.55 213.5,54.45 212.57,54.45 
	212.57,47.94 213.5,47.94 213.5,50.74 217.23,50.74 217.23,47.94 "/>
<polygon fill="#837E84" points="220.56,47.94 222.26,50.32 223.96,47.94 225.05,47.94 222.85,51.06 225.22,54.45 224.13,54.45 
	222.26,51.85 220.41,54.45 219.34,54.45 221.71,51.1 219.49,47.94 "/>
<polygon fill="#837E84" points="228.67,52.2 228.67,54.45 227.75,54.45 227.75,52.18 225.16,47.94 226.15,47.94 228.24,51.37 
	230.33,47.94 231.25,47.94 "/>
<polygon fill="#837E84" points="234.84,52.2 234.84,54.45 233.92,54.45 233.92,52.18 231.33,47.94 232.33,47.94 234.41,51.37 
	236.5,47.94 237.42,47.94 "/>
<polygon fill="#837E84" points="242.64,48.75 239.29,48.75 239.3,54.45 238.38,54.45 238.38,47.94 242.65,47.94 "/>
<polygon fill="#837E84" points="243.75,47.94 244.67,47.94 244.67,52.96 248.52,47.94 249.38,47.94 249.38,54.45 248.47,54.45 
	248.47,49.44 244.61,54.45 243.75,54.45 "/>
<g>
	<defs>
		<rect id="SVGID_11_" width="340.13" height="64.41"/>
	</defs>
	<clipPath id="SVGID_12_">
		<use xlink:href="#SVGID_11_"  overflow="visible"/>
	</clipPath>
	<path clip-path="url(#SVGID_12_)" fill="#837E84" d="M253.02,47.16c-0.28-0.22-0.42-0.53-0.42-0.94h0.66
		c0.01,0.24,0.09,0.43,0.26,0.56c0.17,0.13,0.39,0.2,0.68,0.2c0.28,0,0.5-0.07,0.68-0.2c0.17-0.13,0.26-0.32,0.26-0.56h0.65
		c-0.01,0.4-0.15,0.71-0.43,0.94c-0.28,0.22-0.67,0.33-1.17,0.33C253.69,47.49,253.3,47.38,253.02,47.16 M251.4,47.94h0.92v5.02
		l3.85-5.02h0.85v6.51h-0.91v-5.01l-3.85,5.01h-0.86V47.94z"/>
</g>
<polygon fill="#837E84" points="264.65,47.94 264.65,54.45 263.72,54.45 263.72,51.55 259.98,51.55 259.98,54.45 259.05,54.45 
	259.05,47.94 259.98,47.94 259.98,50.74 263.72,50.74 263.72,47.94 "/>
<g>
	<defs>
		<rect id="SVGID_13_" width="340.13" height="64.41"/>
	</defs>
	<clipPath id="SVGID_14_">
		<use xlink:href="#SVGID_13_"  overflow="visible"/>
	</clipPath>
	<path clip-path="url(#SVGID_14_)" fill="#837E84" d="M271.93,53.72c0.53,0,0.94-0.1,1.22-0.3c0.28-0.21,0.42-0.51,0.42-0.91
		c0-0.78-0.55-1.18-1.64-1.18h-1.83v2.39H271.93z M269.18,47.94h4.9v0.79h-3.99v1.86h2.02c0.78,0,1.37,0.16,1.77,0.48
		c0.4,0.32,0.6,0.79,0.6,1.4c0,0.63-0.22,1.13-0.66,1.47c-0.43,0.34-1.06,0.51-1.87,0.51h-2.78V47.94z"/>
</g>
<path fill="#837E84" d="M279.84,52.08l-1.4-3.19l-1.4,3.19H279.84z M280.17,52.82h-3.46l-0.71,1.62h-0.96l2.95-6.51h0.92l2.95,6.51
	h-0.97L280.17,52.82z"/>
<g>
	<defs>
		<rect id="SVGID_15_" width="340.13" height="64.41"/>
	</defs>
	<clipPath id="SVGID_16_">
		<use xlink:href="#SVGID_15_"  overflow="visible"/>
	</clipPath>
	<path clip-path="url(#SVGID_16_)" fill="#837E84" d="M284.61,47.16c-0.28-0.22-0.42-0.53-0.42-0.94h0.66
		c0,0.24,0.09,0.43,0.26,0.56c0.17,0.13,0.39,0.2,0.68,0.2c0.28,0,0.5-0.07,0.68-0.2c0.17-0.13,0.26-0.32,0.26-0.56h0.65
		c0,0.4-0.15,0.71-0.42,0.94c-0.28,0.22-0.67,0.33-1.17,0.33C285.27,47.49,284.88,47.38,284.61,47.16 M282.98,47.94h0.92v5.02
		l3.85-5.02h0.85v6.51h-0.91v-5.01l-3.86,5.01h-0.86V47.94z"/>
</g>
<polygon fill="#837E84" points="294.89,48.75 291.54,48.75 291.55,54.45 290.64,54.45 290.64,47.94 294.9,47.94 "/>
<g>
	<defs>
		<rect id="SVGID_17_" width="340.13" height="64.41"/>
	</defs>
	<clipPath id="SVGID_18_">
		<use xlink:href="#SVGID_17_"  overflow="visible"/>
	</clipPath>
	<path clip-path="url(#SVGID_18_)" fill="#837E84" d="M301.33,47.94l-2.89,5.36c-0.23,0.43-0.5,0.75-0.81,0.96
		c-0.31,0.21-0.65,0.31-1.01,0.31c-0.29,0-0.58-0.06-0.87-0.2l0.24-0.74c0.23,0.08,0.43,0.13,0.61,0.13c0.41,0,0.75-0.22,1.01-0.65
		l0.15-0.23l-2.62-4.94h0.99l2.11,4.13l2.16-4.13H301.33z"/>
	<path clip-path="url(#SVGID_18_)" fill="#837E84" d="M307.54,47.94l-2.89,5.36c-0.23,0.43-0.5,0.75-0.81,0.96
		c-0.31,0.21-0.65,0.31-1.01,0.31c-0.29,0-0.58-0.06-0.87-0.2l0.24-0.74c0.23,0.08,0.43,0.13,0.61,0.13c0.41,0,0.75-0.22,1.01-0.65
		l0.15-0.23l-2.62-4.94h0.99l2.11,4.13l2.16-4.13H307.54z"/>
	<path clip-path="url(#SVGID_18_)" fill="#837E84" d="M313.74,47.94v6.5h-0.91v-5.7h-2.88l-0.06,1.9c-0.03,0.9-0.1,1.63-0.22,2.19
		c-0.11,0.56-0.3,0.98-0.54,1.26c-0.25,0.28-0.58,0.42-1.01,0.42c-0.19,0-0.39-0.02-0.59-0.08l0.06-0.82c0.1,0.02,0.2,0.03,0.3,0.03
		c0.26,0,0.48-0.1,0.64-0.32c0.17-0.22,0.28-0.54,0.37-0.96c0.08-0.43,0.13-0.99,0.16-1.69l0.1-2.74H313.74z"/>
	<path clip-path="url(#SVGID_18_)" fill="#837E84" d="M321,47.94v6.5h-0.91v-5.7h-2.88l-0.07,1.9c-0.03,0.9-0.1,1.63-0.22,2.19
		c-0.11,0.56-0.3,0.98-0.54,1.26c-0.25,0.28-0.58,0.42-1.01,0.42c-0.19,0-0.38-0.02-0.59-0.08l0.06-0.82c0.1,0.02,0.2,0.03,0.3,0.03
		c0.27,0,0.48-0.1,0.64-0.32c0.17-0.22,0.29-0.54,0.37-0.96c0.08-0.43,0.13-0.99,0.16-1.69l0.1-2.74H321z"/>
</g>
<path fill="#837E84" d="M326.93,52.08l-1.4-3.19l-1.4,3.19H326.93z M327.26,52.82h-3.46l-0.71,1.62h-0.96l2.95-6.51h0.92l2.95,6.51
	h-0.97L327.26,52.82z"/>
<polygon fill="#837E84" points="334.33,48.75 330.98,48.75 330.99,54.45 330.08,54.45 330.08,47.94 334.34,47.94 "/>
<path fill="#837E84" d="M336.71,48.89l1.4,3.19h-2.8L336.71,48.89z M336.25,47.94l-2.95,6.51h0.96l0.72-1.62h3.46l0.72,1.62h0.97
	l-2.95-6.51H336.25z"/>
<g>
	<defs>
		<rect id="SVGID_19_" width="340.13" height="64.41"/>
	</defs>
	<clipPath id="SVGID_20_">
		<use xlink:href="#SVGID_19_"  overflow="visible"/>
	</clipPath>
	<path clip-path="url(#SVGID_20_)" fill="#2852A4" d="M44.42,0H19.98C8.97,0,0,8.85,0,19.73v5.79v4.97h5.03H16.3h0.68h3.98
		c5.28,0,9.56-4.23,9.56-9.44v-9.41h-9.67c-5.2,0-9.43,4.17-9.43,9.31v1.24h4.88v-1.1c0-2.47,2.03-4.47,4.54-4.47h4.79v4.35
		c0,2.51-2.06,4.55-4.6,4.55H16.3v0h-4.88v0.01H5.03v-5.79c0-8.14,6.71-14.77,14.95-14.77h24.44c8.25,0,14.96,6.63,14.96,14.77v5.79
		h-6.42v-4.57c0-5.15-4.22-9.31-9.42-9.31h-9.67v9.41c0,5.21,4.28,9.44,9.56,9.44h1.29v-4.98h-1.37c-2.54,0-4.6-2.03-4.6-4.55v-4.35
		h4.8c2.5,0,4.53,2,4.53,4.47v4.42h0v0.01h-0.02v4.97h0.02h4.42h6.89h5.03v-4.97v-5.79C64.4,8.85,55.44,0,44.42,0"/>
	<path clip-path="url(#SVGID_20_)" fill="#2852A4" d="M52.92,33.8h-0.43h-4.44h-0.04h-4.71c-5.2,0-9.43,4.17-9.43,9.31v9.54h9.54
		c5.28,0,9.56-4.23,9.56-9.44v-1.12h-4.88v1.04c0,2.51-2.06,4.55-4.6,4.55h-4.73v-4.42c0-2.47,2.03-4.48,4.53-4.48h0.26v0h9.42v0
		h6.42v5.91c0,8.15-6.71,14.77-14.96,14.77H19.98c-8.24,0-14.95-6.62-14.95-14.77v-5.91h4.68h1.71v4.44c0,5.21,4.28,9.44,9.56,9.44
		h9.53v-9.54c0-5.14-4.22-9.31-9.42-9.31h-1.43v4.98h1.44c2.5,0,4.53,2,4.53,4.48v4.42H20.9c-2.53,0-4.58-2.02-4.6-4.51
		c0-0.01,0-0.02,0-0.03v-4.36v-0.01h0V33.8h0h-4.51H9.71H5.03H0v4.97v5.91c0,10.88,8.97,19.73,19.98,19.73h24.44
		c11.02,0,19.98-8.85,19.98-19.73v-5.91V33.8h-5.03H52.92z"/>
</g>
</svg>
